<?xml version="1.0" standalone="no"?><!DOCTYPE svg PUBLIC "-//W3C//DTD SVG 1.1//EN" "http://www.w3.org/Graphics/SVG/1.1/DTD/svg11.dtd"><svg t="1734416090951" class="icon" viewBox="0 0 1024 1024" version="1.1" xmlns="http://www.w3.org/2000/svg" p-id="5974" xmlns:xlink="http://www.w3.org/1999/xlink" width="200" height="200"><path d="M696.32 614.4c30.72 0 56.32 5.12 81.92 15.36 25.6 10.24 46.08 25.6 66.56 40.96 20.48 15.36 35.84 40.96 46.08 61.44 10.24 25.6 15.36 51.2 15.36 76.8v153.6c0 10.24-5.12 20.48-10.24 25.6-5.12 5.12-15.36 10.24-25.6 10.24H153.6c-10.24 0-20.48-5.12-25.6-10.24-5.12-5.12-10.24-15.36-10.24-25.6V803.84c0-25.6 5.12-51.2 15.36-76.8 10.24-25.6 25.6-46.08 46.08-61.44 20.48-15.36 40.96-30.72 66.56-40.96 25.6-10.24 51.2-15.36 81.92-15.36h368.64v5.12zM512 542.72c-35.84 0-71.68-5.12-102.4-20.48s-61.44-30.72-87.04-56.32c-25.6-25.6-40.96-51.2-56.32-81.92-10.24-30.72-20.48-66.56-20.48-102.4s5.12-71.68 20.48-102.4 30.72-61.44 56.32-81.92c25.6-25.6 56.32-46.08 87.04-61.44 30.72-15.36 66.56-20.48 102.4-20.48s71.68 5.12 102.4 20.48 61.44 30.72 81.92 56.32 40.96 51.2 56.32 81.92 20.48 66.56 20.48 102.4-5.12 71.68-20.48 102.4-30.72 61.44-56.32 81.92c-25.6 25.6-51.2 40.96-81.92 56.32-30.72 20.48-66.56 25.6-102.4 25.6z" fill="#E6E6E6" p-id="5975"></path></svg>